<svg id="visual" viewBox="0 0 288 340" width="288" height="340" xmlns="http://www.w3.org/2000/svg" xmlns:xlink="http://www.w3.org/1999/xlink" version="1.1"><rect x="0" y="0" width="288" height="340" fill="#F5F5F5"></rect><defs><linearGradient id="grad1_0" x1="0%" y1="100%" x2="100%" y2="0%"><stop offset="30%" stop-color="#f5f5f5" stop-opacity="1"></stop><stop offset="70%" stop-color="#f5f5f5" stop-opacity="1"></stop></linearGradient></defs><defs><linearGradient id="grad2_0" x1="0%" y1="100%" x2="100%" y2="0%"><stop offset="30%" stop-color="#f5f5f5" stop-opacity="1"></stop><stop offset="70%" stop-color="#f5f5f5" stop-opacity="1"></stop></linearGradient></defs><g transform="translate(288, 340)"><path d="M-55.7 0C-49.2 -5.6 -42.6 -11.1 -38.8 -16.1C-35 -21 -33.9 -25.3 -31.8 -31.8C-29.8 -38.3 -26.8 -47.1 -21.3 -51.5C-15.9 -55.8 -7.9 -55.8 0 -55.7L0 0Z" fill="#FBAE3C"></path></g><g transform="translate(0, 0)"><path d="M55.7 0C55.4 8.3 55.1 16.7 49.9 20.7C44.7 24.7 34.5 24.3 29.7 29.7C24.9 35.1 25.4 46.2 21.3 51.5C17.3 56.7 8.6 56.2 0 55.7L0 0Z" fill="#FBAE3C"></path></g></svg>